<?xml version="1.0" standalone="no"?>
<!DOCTYPE svg PUBLIC "-//W3C//DTD SVG 20010904//EN"
 "http://www.w3.org/TR/2001/REC-SVG-20010904/DTD/svg10.dtd">
<svg version="1.0" xmlns="http://www.w3.org/2000/svg"
 width="512.000000pt" height="512.000000pt" viewBox="0 0 512.000000 512.000000"
 preserveAspectRatio="xMidYMid meet">
<metadata>
Created by potrace 1.11, written by Peter Selinger 2001-2013
</metadata>
<g transform="translate(0.000000,512.000000) scale(0.100000,-0.100000)"
fill="#000000" stroke="none">
<path d="M306 5109 c-62 -15 -153 -68 -197 -116 -22 -24 -55 -74 -72 -111
l-32 -67 0 -2256 0 -2255 37 -76 c45 -91 103 -147 196 -191 l67 -32 2256 0
2255 0 76 37 c91 45 147 103 191 196 l32 67 0 2255 0 2255 -32 67 c-44 93
-100 151 -191 196 l-76 37 -2235 2 c-1327 0 -2252 -3 -2275 -8z m4154 -1338
c170 -29 272 -55 278 -69 7 -18 -14 -283 -31 -392 l-12 -75 -370 -7 c-389 -7
-504 -16 -545 -47 -80 -58 -135 -293 -134 -581 0 -240 35 -396 114 -519 47
-73 102 -114 189 -143 90 -28 384 -35 626 -15 94 9 171 15 171 14 6 -7 45
-470 41 -481 -6 -15 -126 -57 -227 -80 -204 -46 -581 -64 -767 -37 -411 59
-700 258 -844 579 -148 329 -156 844 -19 1199 86 225 270 423 498 537 106 53
342 117 482 130 83 7 484 -2 550 -13z m-2490 -23 c14 -31 730 -2355 730 -2368
0 -7 -127 -10 -385 -10 l-384 0 -9 33 c-5 17 -33 134 -63 260 l-54 227 -350 0
-351 0 -58 -247 c-33 -137 -61 -254 -64 -260 -3 -10 -90 -13 -389 -13 l-384 0
6 23 c8 25 703 2182 741 2300 l26 77 489 0 489 0 10 -22z"/>
<path d="M1445 3228 c-4 -13 -59 -212 -123 -443 l-118 -420 245 -3 c134 -1
246 -1 248 1 6 7 -230 887 -239 887 -4 0 -10 -10 -13 -22z"/>
</g>
</svg>
